<svg width="498" height="100" viewBox="0 0 498 100" fill="none" xmlns="http://www.w3.org/2000/svg">
<path d="M498 8V99.648H486.084V8H498Z" fill="black"/>
<path d="M435.895 99.56C429.074 99.56 423.591 97.768 419.446 94.184C415.302 90.6 413.229 86.0347 413.229 80.488C413.229 68.5413 421.691 61.928 438.615 60.648L457.525 59.24V57.192C457.525 52.84 456.1 49.4267 453.251 46.952C450.402 44.392 446.689 43.112 442.112 43.112H441.594C437.795 43.112 434.514 44.008 431.751 45.8C429.074 47.5067 427.39 49.8533 426.699 52.84H414.654C415.518 47.0373 418.41 42.3013 423.332 38.632C428.34 34.8773 434.6 33 442.112 33C451.006 33 457.827 35.304 462.576 39.912C467.325 44.52 469.7 50.4507 469.7 57.704V84.2C469.7 90.6 469.916 95.2933 470.348 98.28H458.95C458.691 97 458.475 95.4213 458.302 93.544C458.216 91.5813 458.173 89.96 458.173 88.68C456.273 91.6667 453.337 94.2267 449.365 96.36C445.393 98.4933 440.903 99.56 435.895 99.56ZM438.356 89.448C441.465 89.448 444.487 88.7653 447.423 87.4C450.358 86.0347 452.776 83.9867 454.676 81.256C456.575 78.5253 457.525 75.24 457.525 71.4V68.584L440.169 69.736C435.248 70.0773 431.535 71.144 429.031 72.936C426.527 74.6427 425.275 76.9893 425.275 79.976C425.275 82.7067 426.397 84.968 428.642 86.76C430.974 88.552 434.039 89.448 437.838 89.448H438.356Z" fill="black"/>
<path d="M376.049 99.816C366.637 99.816 358.823 96.6587 352.606 90.344C346.475 83.8587 343.41 75.88 343.41 66.408C343.41 56.7653 346.475 48.7867 352.606 42.472C358.823 36.1573 366.637 33 376.049 33C382.525 33 388.181 34.6213 393.016 37.864C397.852 41.0213 401.478 45.416 403.896 51.048L393.016 55.528C389.649 47.6773 383.734 43.752 375.272 43.752C369.832 43.752 365.126 45.928 361.154 50.28C357.269 54.632 355.326 60.008 355.326 66.408C355.326 72.808 357.269 78.184 361.154 82.536C365.126 86.888 369.832 89.064 375.272 89.064C383.993 89.064 390.124 85.1387 393.664 77.288L404.284 81.768C401.953 87.4 398.283 91.8373 393.275 95.08C388.353 98.2373 382.611 99.816 376.049 99.816Z" fill="black"/>
<path d="M334.4 80.36C334.4 85.8213 331.983 90.4293 327.147 94.184C322.312 97.9387 316.224 99.816 308.885 99.816C302.495 99.816 296.883 98.1947 292.047 94.952C287.212 91.624 283.758 87.272 281.686 81.896L292.307 77.416C293.861 81.1707 296.106 84.1147 299.042 86.248C302.064 88.296 305.345 89.32 308.885 89.32C312.684 89.32 315.836 88.5093 318.34 86.888C320.93 85.2667 322.226 83.3467 322.226 81.128C322.226 77.1173 319.117 74.1733 312.9 72.296L302.021 69.608C289.673 66.536 283.499 60.648 283.499 51.944C283.499 46.2267 285.831 41.6613 290.493 38.248C295.242 34.7493 301.287 33 308.626 33C314.239 33 319.29 34.3227 323.78 36.968C328.356 39.6133 331.551 43.1547 333.364 47.592L322.744 51.944C321.535 49.2987 319.549 47.2507 316.786 45.8C314.109 44.264 311.087 43.496 307.719 43.496C304.611 43.496 301.805 44.264 299.301 45.8C296.883 47.336 295.674 49.2133 295.674 51.432C295.674 55.016 299.085 57.576 305.906 59.112L315.491 61.544C328.097 64.616 334.4 70.888 334.4 80.36Z" fill="black"/>
<path d="M237.568 99.56C230.747 99.56 225.264 97.768 221.119 94.184C216.975 90.6 214.902 86.0347 214.902 80.488C214.902 68.5413 223.364 61.928 240.288 60.648L259.198 59.24V57.192C259.198 52.84 257.773 49.4267 254.924 46.952C252.075 44.392 248.362 43.112 243.785 43.112H243.267C239.468 43.112 236.187 44.008 233.424 45.8C230.747 47.5067 229.063 49.8533 228.372 52.84H216.327C217.191 47.0373 220.083 42.3013 225.005 38.632C230.013 34.8773 236.273 33 243.785 33C252.679 33 259.5 35.304 264.249 39.912C268.998 44.52 271.373 50.4507 271.373 57.704V84.2C271.373 90.6 271.589 95.2933 272.021 98.28H260.623C260.364 97 260.148 95.4213 259.975 93.544C259.889 91.5813 259.846 89.96 259.846 88.68C257.946 91.6667 255.01 94.2267 251.038 96.36C247.066 98.4933 242.576 99.56 237.568 99.56ZM240.029 89.448C243.138 89.448 246.16 88.7653 249.096 87.4C252.031 86.0347 254.449 83.9867 256.349 81.256C258.248 78.5253 259.198 75.24 259.198 71.4V68.584L241.842 69.736C236.921 70.0773 233.208 71.144 230.704 72.936C228.2 74.6427 226.948 76.9893 226.948 79.976C226.948 82.7067 228.07 84.968 230.315 86.76C232.647 88.552 235.712 89.448 239.511 89.448H240.029Z" fill="black"/>
<path d="M138 0H181.473C187.869 0 193.566 1.19048 198.562 3.57143C203.659 5.85715 207.657 9.28572 210.555 13.8571C213.453 18.3333 214.902 23.7143 214.902 30C214.902 36.2857 213.453 41.7143 210.555 46.2857C207.657 50.7619 203.659 54.1905 198.562 56.5714C193.566 58.8571 187.869 60 181.473 60H151.492V100H138V0ZM179.224 48.2857C186.22 48.2857 191.667 46.7619 195.564 43.7143C199.462 40.5714 201.411 36 201.411 30C201.411 24 199.462 19.4762 195.564 16.4286C191.667 13.2857 186.22 11.7143 179.224 11.7143H151.492V48.2857H179.224Z" fill="black"/>
<rect y="60" width="20" height="40" fill="black"/>
<rect x="40" y="30" width="20" height="40" fill="black"/>
<rect x="80" width="20" height="40" fill="black"/>
</svg>
