<svg width="360" height="100" viewBox="0 0 360 100" fill="none" xmlns="http://www.w3.org/2000/svg">
<path d="M360 8V99.648H348.084V8H360Z" fill="black"/>
<path d="M297.895 99.56C291.074 99.56 285.591 97.768 281.446 94.184C277.302 90.6 275.229 86.0347 275.229 80.488C275.229 68.5413 283.691 61.928 300.615 60.648L319.525 59.24V57.192C319.525 52.84 318.1 49.4267 315.251 46.952C312.402 44.392 308.689 43.112 304.112 43.112H303.594C299.795 43.112 296.514 44.008 293.751 45.8C291.074 47.5067 289.39 49.8533 288.699 52.84H276.654C277.518 47.0373 280.41 42.3013 285.332 38.632C290.34 34.8773 296.6 33 304.112 33C313.006 33 319.827 35.304 324.576 39.912C329.325 44.52 331.7 50.4507 331.7 57.704V84.2C331.7 90.6 331.916 95.2933 332.348 98.28H320.95C320.691 97 320.475 95.4213 320.302 93.544C320.216 91.5813 320.173 89.96 320.173 88.68C318.273 91.6667 315.337 94.2267 311.365 96.36C307.393 98.4933 302.903 99.56 297.895 99.56ZM300.356 89.448C303.465 89.448 306.487 88.7653 309.423 87.4C312.358 86.0347 314.776 83.9867 316.676 81.256C318.575 78.5253 319.525 75.24 319.525 71.4V68.584L302.169 69.736C297.248 70.0773 293.535 71.144 291.031 72.936C288.527 74.6427 287.275 76.9893 287.275 79.976C287.275 82.7067 288.397 84.968 290.642 86.76C292.974 88.552 296.039 89.448 299.838 89.448H300.356Z" fill="black"/>
<path d="M238.049 99.816C228.637 99.816 220.823 96.6587 214.606 90.344C208.475 83.8587 205.41 75.88 205.41 66.408C205.41 56.7653 208.475 48.7867 214.606 42.472C220.823 36.1573 228.637 33 238.049 33C244.525 33 250.181 34.6213 255.016 37.864C259.852 41.0213 263.478 45.416 265.896 51.048L255.016 55.528C251.649 47.6773 245.734 43.752 237.272 43.752C231.832 43.752 227.126 45.928 223.154 50.28C219.269 54.632 217.326 60.008 217.326 66.408C217.326 72.808 219.269 78.184 223.154 82.536C227.126 86.888 231.832 89.064 237.272 89.064C245.993 89.064 252.124 85.1387 255.664 77.288L266.284 81.768C263.953 87.4 260.283 91.8373 255.275 95.08C250.353 98.2373 244.611 99.816 238.049 99.816Z" fill="black"/>
<path d="M196.4 80.36C196.4 85.8213 193.983 90.4293 189.147 94.184C184.312 97.9387 178.224 99.816 170.885 99.816C164.495 99.816 158.883 98.1947 154.047 94.952C149.212 91.624 145.758 87.272 143.686 81.896L154.307 77.416C155.861 81.1707 158.106 84.1147 161.042 86.248C164.064 88.296 167.345 89.32 170.885 89.32C174.684 89.32 177.836 88.5093 180.34 86.888C182.93 85.2667 184.226 83.3467 184.226 81.128C184.226 77.1173 181.117 74.1733 174.9 72.296L164.021 69.608C151.673 66.536 145.499 60.648 145.499 51.944C145.499 46.2267 147.831 41.6613 152.493 38.248C157.242 34.7493 163.287 33 170.626 33C176.239 33 181.29 34.3227 185.78 36.968C190.356 39.6133 193.551 43.1547 195.364 47.592L184.744 51.944C183.535 49.2987 181.549 47.2507 178.786 45.8C176.109 44.264 173.087 43.496 169.719 43.496C166.611 43.496 163.805 44.264 161.301 45.8C158.883 47.336 157.674 49.2133 157.674 51.432C157.674 55.016 161.085 57.576 167.906 59.112L177.491 61.544C190.097 64.616 196.4 70.888 196.4 80.36Z" fill="black"/>
<path d="M99.5683 99.56C92.7469 99.56 87.2639 97.768 83.1193 94.184C78.9747 90.6 76.9023 86.0347 76.9023 80.488C76.9023 68.5413 85.3643 61.928 102.288 60.648L121.198 59.24V57.192C121.198 52.84 119.773 49.4267 116.924 46.952C114.075 44.392 110.362 43.112 105.785 43.112H105.267C101.468 43.112 98.1867 44.008 95.4237 45.8C92.7469 47.5067 91.0632 49.8533 90.3724 52.84H78.3271C79.1905 47.0373 82.0831 42.3013 87.0049 38.632C92.013 34.8773 98.2731 33 105.785 33C114.679 33 121.5 35.304 126.249 39.912C130.998 44.52 133.373 50.4507 133.373 57.704V84.2C133.373 90.6 133.589 95.2933 134.021 98.28H122.623C122.364 97 122.148 95.4213 121.975 93.544C121.889 91.5813 121.846 89.96 121.846 88.68C119.946 91.6667 117.01 94.2267 113.038 96.36C109.066 98.4933 104.576 99.56 99.5683 99.56ZM102.029 89.448C105.138 89.448 108.16 88.7653 111.096 87.4C114.031 86.0347 116.449 83.9867 118.349 81.256C120.248 78.5253 121.198 75.24 121.198 71.4V68.584L103.842 69.736C98.9207 70.0773 95.2078 71.144 92.7037 72.936C90.1997 74.6427 88.9477 76.9893 88.9477 79.976C88.9477 82.7067 90.0702 84.968 92.3152 86.76C94.6465 88.552 97.7118 89.448 101.511 89.448H102.029Z" fill="black"/>
<path d="M0 0H43.4731C49.8691 0 55.5655 1.19048 60.5625 3.57143C65.6593 5.85715 69.6568 9.28572 72.555 13.8571C75.4532 18.3333 76.9023 23.7143 76.9023 30C76.9023 36.2857 75.4532 41.7143 72.555 46.2857C69.6568 50.7619 65.6593 54.1905 60.5625 56.5714C55.5655 58.8571 49.8691 60 43.4731 60H13.4916V100H0V0ZM41.2244 48.2857C48.2201 48.2857 53.6667 46.7619 57.5643 43.7143C61.4619 40.5714 63.4107 36 63.4107 30C63.4107 24 61.4619 19.4762 57.5643 16.4286C53.6667 13.2857 48.2201 11.7143 41.2244 11.7143H13.4916V48.2857H41.2244Z" fill="black"/>
</svg>
